<svg width="26" height="26" viewBox="0 0 26 26" fill="none" xmlns="http://www.w3.org/2000/svg">
<path fill-rule="evenodd" clip-rule="evenodd" d="M10.3921 3.46692C10.1283 3.69175 9.99636 3.80417 9.85547 3.89859C9.53253 4.11505 9.16985 4.26527 8.78843 4.34058C8.62205 4.37343 8.44928 4.38721 8.10375 4.41479C7.23558 4.48407 6.8015 4.51871 6.43934 4.64662C5.60171 4.94248 4.94285 5.60134 4.64699 6.43897C4.51907 6.80113 4.48443 7.23521 4.41515 8.10338C4.38758 8.44891 4.37379 8.62168 4.34094 8.78807C4.26564 9.16948 4.11541 9.53216 3.89896 9.85511C3.80453 9.99599 3.69212 10.1279 3.46729 10.3917C2.9024 11.0546 2.61994 11.386 2.45431 11.7326C2.07122 12.5341 2.07122 13.4658 2.45431 14.2673C2.61994 14.6139 2.90239 14.9453 3.46729 15.6082C3.69209 15.872 3.80454 16.0039 3.89896 16.1448C4.11541 16.4678 4.26564 16.8304 4.34094 17.2119C4.37379 17.3782 4.38758 17.551 4.41515 17.8965C4.48443 18.7647 4.51907 19.1988 4.64699 19.5609C4.94285 20.3986 5.60171 21.0574 6.43934 21.3533C6.80149 21.4812 7.23558 21.5159 8.10375 21.5851C8.44928 21.6127 8.62205 21.6265 8.78843 21.6593C9.16985 21.7346 9.53253 21.8849 9.85547 22.1013C9.99636 22.1958 10.1283 22.3082 10.3921 22.533C11.055 23.0979 11.3864 23.3803 11.7329 23.546C12.5344 23.9291 13.4662 23.9291 14.2677 23.546C14.6142 23.3803 14.9457 23.0979 15.6086 22.533C15.8724 22.3082 16.0043 22.1958 16.1452 22.1013C16.4681 21.8849 16.8308 21.7346 17.2122 21.6593C17.3786 21.6265 17.5514 21.6127 17.8969 21.5851C18.7651 21.5159 19.1992 21.4812 19.5613 21.3533C20.3989 21.0574 21.0578 20.3986 21.3537 19.5609C21.4816 19.1988 21.5162 18.7647 21.5855 17.8965C21.6131 17.551 21.6269 17.3782 21.6597 17.2119C21.735 16.8304 21.8852 16.4678 22.1017 16.1448C22.1961 16.0039 22.3085 15.872 22.5334 15.6082C23.0983 14.9453 23.3807 14.6139 23.5463 14.2673C23.9294 13.4658 23.9294 12.5341 23.5463 11.7326C23.3807 11.386 23.0983 11.0546 22.5334 10.3917C22.3085 10.1279 22.1961 9.99599 22.1017 9.85511C21.8852 9.53216 21.735 9.16948 21.6597 8.78807C21.6269 8.62168 21.6131 8.44891 21.5855 8.10338C21.5162 7.23521 21.4816 6.80113 21.3537 6.43897C21.0578 5.60134 20.3989 4.94248 19.5613 4.64662C19.1992 4.51871 18.7651 4.48407 17.8969 4.41479C17.5514 4.38721 17.3786 4.37343 17.2122 4.34058C16.8308 4.26527 16.4681 4.11505 16.1452 3.89859C16.0043 3.80417 15.8724 3.69175 15.6086 3.46692C14.9457 2.90202 14.6142 2.61957 14.2677 2.45394C13.4662 2.07085 12.5344 2.07085 11.7329 2.45394C11.3864 2.61957 11.055 2.90203 10.3921 3.46692ZM17.7383 10.685C18.0826 10.3407 18.0826 9.78245 17.7383 9.43814C17.3939 9.09382 16.8357 9.09382 16.4914 9.43814L11.2369 14.6926L9.50924 12.9649C9.16492 12.6205 8.60667 12.6205 8.26235 12.9649C7.91804 13.3092 7.91804 13.8674 8.26235 14.2118L10.6135 16.5629C10.9578 16.9072 11.5161 16.9072 11.8604 16.5629L17.7383 10.685Z" fill="#C49A6C"/>
</svg>
