<svg width="151" height="36" viewBox="0 0 151 36" fill="none" xmlns="http://www.w3.org/2000/svg">
<path d="M2.23047 27.6859L6.84799 23.0323L13.0508 29.1892L8.43408 33.8435L8.41075 27.6626L2.23047 27.6859Z" fill="#C49A6C"/>
<path d="M0 13.6986L6.55504 13.673L6.58847 22.4148L0.0334328 22.4397L4.38661 18.0528L0 13.6986Z" fill="#C49A6C"/>
<path d="M8.31166 2.23035L12.9649 6.84894L6.80954 13.0532L2.15625 8.43461L8.33576 8.41206L8.31166 2.23035Z" fill="#C49A6C"/>
<path d="M22.2966 0L22.3215 6.55655L13.5825 6.58999L13.5576 0.0334405L17.9435 4.38763L22.2966 0Z" fill="#C49A6C"/>
<path d="M33.7618 8.31332L29.1442 12.9677L22.9414 6.81009L27.5582 2.15649L27.5815 8.33743L33.7618 8.31332Z" fill="#C49A6C"/>
<path d="M35.9918 22.3013L29.4368 22.3262L29.4033 13.5852L35.9584 13.5603L31.6052 17.9472L35.9918 22.3013Z" fill="#C49A6C"/>
<path d="M27.6806 33.7695L23.0273 29.1509L29.1835 22.9467L33.836 27.5645L27.6565 27.5878L27.6806 33.7695Z" fill="#C49A6C"/>
<path d="M13.6958 36L13.6709 29.4435L22.4099 29.41L22.4348 35.9666L18.049 31.6124L13.6958 36Z" fill="#C49A6C"/>
<path d="M48.4735 0.00305176V8.56211L56.4941 0.00305176H58.9517L52.6735 6.64048L59.398 15.9819H57.0523L51.3331 8.02629L48.4735 11.0429V15.9819H46.4629V0.003829H48.4735V0.00305176Z" fill="white"/>
<path d="M65.7445 0.53894V15.9812H63.7339V4.4273C62.7954 5.32162 61.9021 5.32162 60.5166 5.32162V3.86893C63.2199 3.86893 63.957 2.55 64.1809 0.53894H65.7445Z" fill="white"/>
<path d="M72.4688 0.00317383H75.2172L80.2219 13.2773H80.2662L85.2709 0.00317383H88.0186V15.9812H86.008V2.8409H85.9637L81.1378 15.9812H79.3503L74.5244 2.8409H74.4793V15.9812H72.4688V0.00317383Z" fill="white"/>
<path d="M95.3916 5.83563C93.2247 5.83563 92.5094 6.46088 92.3975 8.11498H90.61C90.722 5.92506 92.0849 4.27173 95.3916 4.27173C97.5584 4.27173 99.5022 5.12095 99.5022 7.86924V13.4109C99.5022 14.3045 99.6585 14.7967 100.798 14.6622V15.9135C100.329 16.0698 100.084 16.0923 99.7479 16.0923C98.6757 16.0923 98.0273 15.8015 97.7147 14.5502H97.6704C96.9551 15.6226 95.6816 16.293 93.8055 16.293C91.5041 16.293 90.0518 14.9741 90.0518 13.0524C90.0518 10.4597 91.9729 9.78931 94.922 9.23094C96.8432 8.87322 97.7147 8.62747 97.7147 7.48818C97.7147 6.59464 97.2233 5.83485 95.3916 5.83485V5.83563ZM97.7155 11.5787V9.67966C97.3804 10.0148 96.2857 10.3275 95.079 10.5732C92.8671 11.0429 91.8392 11.6013 91.8392 12.9645C91.8392 14.0821 92.5094 14.7299 93.9843 14.7299C96.1069 14.7299 97.7155 13.7687 97.7155 11.5787Z" fill="white"/>
<path d="M108.171 4.33865V6.12652H108.126C105.646 5.72447 103.926 7.46723 103.926 9.9029V15.9812H102.139V4.58362H103.926V6.84042H103.97C104.574 5.34341 105.49 4.271 107.121 4.271C107.545 4.271 107.859 4.29277 108.171 4.33788V4.33865Z" fill="white"/>
<path d="M118.761 12.8526C118.761 14.9305 116.862 16.2938 114.271 16.2938C110.785 16.2938 109.176 14.6405 109.064 12.1815H110.852C110.963 13.4553 111.41 14.7291 114.27 14.7291C116.213 14.7291 116.973 13.7236 116.973 12.9638C116.973 11.3105 115.476 11.2211 113.845 10.819C112.103 10.3944 109.511 10.193 109.511 7.51156C109.511 5.72369 111.097 4.271 113.778 4.271C116.615 4.271 118.134 5.88 118.313 7.84673H116.526C116.347 6.97496 115.923 5.83567 113.778 5.83567C112.17 5.83567 111.298 6.48347 111.298 7.3778C111.298 8.7185 112.84 8.83049 114.426 9.20999C116.459 9.70148 118.761 10.0367 118.761 12.8526H118.761Z" fill="white"/>
<path d="M129.909 8.02564V15.9812H128.122V8.4728C128.122 6.99756 127.429 5.83571 125.641 5.83571C123.631 5.83571 122.29 7.10954 122.29 8.87486V15.9812H120.503V0.00317383H122.29V5.9477H122.335C122.938 5.14359 124.145 4.27182 126.088 4.27182C128.167 4.27182 129.909 5.4111 129.909 8.02642V8.02564Z" fill="white"/>
<path d="M136.947 5.83575C134.78 5.83575 134.065 6.461 133.953 8.11511H132.166C132.278 5.92518 133.641 4.27185 136.947 4.27185C139.114 4.27185 141.058 5.12107 141.058 7.86936V13.4111C141.058 14.3046 141.214 14.7969 142.354 14.6623V15.9136C141.884 16.0699 141.639 16.0925 141.304 16.0925C140.231 16.0925 139.583 15.8016 139.27 14.5503H139.226C138.511 15.6228 137.237 16.2931 135.361 16.2931C133.06 16.2931 131.607 14.9742 131.607 13.0525C131.607 10.4598 133.529 9.78943 136.478 9.23107C138.399 8.87334 139.27 8.62759 139.27 7.4883C139.27 6.59476 138.779 5.83497 136.947 5.83497V5.83575ZM139.271 11.5789V9.67978C138.936 10.015 137.841 10.3276 136.635 10.5733C134.423 11.043 133.395 11.6014 133.395 12.9647C133.395 14.0822 134.065 14.73 135.54 14.73C137.663 14.73 139.271 13.7688 139.271 11.5789Z" fill="white"/>
<path d="M145.549 0.00317383V15.9812H143.762V0.00317383H145.549Z" fill="white"/>
<path d="M55.6008 26.5987V28.3865H48.4735V35.6049H46.4629V19.6268H57.2988V21.4147H48.4735V26.5994H55.6008V26.5987Z" fill="white"/>
<path d="M63.0406 35.9175C59.5551 35.9175 57.4551 33.4592 57.4551 29.9061C57.4551 26.3529 59.5551 23.8947 63.0406 23.8947C66.5261 23.8947 68.6035 26.3529 68.6035 29.9061C68.6035 33.4592 66.5035 35.9175 63.0406 35.9175ZM63.0406 34.3528C65.5876 34.3528 66.8161 32.341 66.8161 29.9061C66.8161 27.4712 65.5869 25.4593 63.0406 25.4593C60.4943 25.4593 59.2425 27.4704 59.2425 29.9061C59.2425 32.3417 60.471 34.3528 63.0406 34.3528Z" fill="white"/>
<path d="M79.7528 24.2074V35.605H77.9653V34.2417H77.921C77.3177 35.0458 76.111 35.9176 74.1673 35.9176C72.089 35.9176 70.3467 34.7775 70.3467 32.163V24.2074H72.1341V31.7166C72.1341 33.1911 72.8269 34.3537 74.6143 34.3537C76.6249 34.3537 77.9653 33.0799 77.9653 31.3145V24.2082H79.7528V24.2074Z" fill="white"/>
<path d="M91.6161 27.6485V35.6041H89.8286V28.0957C89.8286 26.6204 89.1359 25.4586 87.3484 25.4586C85.3378 25.4586 83.9974 26.7324 83.9974 28.4977V35.6041H82.21V24.2065H83.9974V25.5698H84.0417C84.6451 24.7657 85.8517 23.8939 87.7955 23.8939C89.8737 23.8939 91.6161 25.0332 91.6161 27.6485Z" fill="white"/>
<path d="M103.904 19.6261V35.6042H102.117V34.1966H102.072C101.402 35.0683 100.329 35.9176 98.4968 35.9176C95.6372 35.9176 93.3584 33.6607 93.3584 29.9061C93.3584 26.1515 95.6372 23.8947 98.4968 23.8947C100.329 23.8947 101.402 24.6989 102.072 25.6826H102.117V19.6261H103.904ZM102.117 29.9061C102.117 27.224 100.798 25.4594 98.6764 25.4594C96.3308 25.4594 95.1466 27.6719 95.1466 29.9061C95.1466 32.1404 96.3308 34.3529 98.6764 34.3529C100.799 34.3529 102.117 32.5876 102.117 29.9061Z" fill="white"/>
<path d="M111.01 25.4587C108.843 25.4587 108.128 26.0839 108.016 27.738H106.228C106.34 25.5481 107.703 23.8948 111.01 23.8948C113.177 23.8948 115.12 24.744 115.12 27.4923V33.034C115.12 33.9275 115.277 34.4198 116.416 34.2853V35.5365C115.947 35.6928 115.702 35.7154 115.366 35.7154C114.294 35.7154 113.645 35.4245 113.333 34.1733H113.289C112.573 35.2457 111.3 35.916 109.424 35.916C107.122 35.916 105.67 34.5971 105.67 32.6755C105.67 30.0827 107.591 29.4124 110.54 28.854C112.461 28.4963 113.333 28.2505 113.333 27.1112C113.333 26.2177 112.842 25.4579 111.01 25.4579V25.4587ZM113.333 31.2018V29.3027C112.998 29.6379 111.903 29.9505 110.696 30.1963C108.484 30.666 107.457 31.2243 107.457 32.5876C107.457 33.7051 108.127 34.3529 109.602 34.3529C111.724 34.3529 113.333 33.3917 113.333 31.2018Z" fill="white"/>
<path d="M120.259 25.7721V32.6327C120.259 33.9291 120.974 34.1522 122.493 34.041V35.6049C122.091 35.6944 121.622 35.7387 121.153 35.7387C119.634 35.7387 118.471 35.1352 118.471 32.8115V25.7721H116.796V24.2074H118.471V20.4084H120.259V24.2074H122.493V25.7721H120.259Z" fill="white"/>
<path d="M124.37 20.9225C124.37 20.2296 124.995 19.8501 125.487 19.8501C125.98 19.8501 126.605 20.2304 126.605 20.9225C126.605 21.6146 126.001 21.9949 125.487 21.9949C124.973 21.9949 124.37 21.6146 124.37 20.9225ZM126.381 24.2074V35.605H124.593V24.2074H126.381Z" fill="white"/>
<path d="M133.999 35.9176C130.513 35.9176 128.413 33.4594 128.413 29.9062C128.413 26.353 130.513 23.8948 133.999 23.8948C137.484 23.8948 139.562 26.353 139.562 29.9062C139.562 33.4594 137.462 35.9176 133.999 35.9176ZM133.999 34.3529C136.546 34.3529 137.774 32.3411 137.774 29.9062C137.774 27.4713 136.545 25.4595 133.999 25.4595C131.452 25.4595 130.201 27.4705 130.201 29.9062C130.201 32.3419 131.429 34.3529 133.999 34.3529Z" fill="white"/>
<path d="M150.779 27.6485V35.6041H148.992V28.0957C148.992 26.6204 148.299 25.4586 146.511 25.4586C144.501 25.4586 143.161 26.7324 143.161 28.4977V35.6041H141.373V24.2065H143.161V25.5698H143.205C143.808 24.7657 145.015 23.8939 146.959 23.8939C149.037 23.8939 150.779 25.0332 150.779 27.6485Z" fill="white"/>
</svg>
